<svg width="200" height="260" viewBox="0 0 200 260" fill="none" xmlns="http://www.w3.org/2000/svg">
<rect x="200" width="260" height="200" rx="21" transform="rotate(90 200 0)" fill="url(#paint0_linear)"/>
<mask id="mask0" style="mask-type:alpha" maskUnits="userSpaceOnUse" x="0" y="0" width="200" height="260">
<rect x="200" width="260" height="200" rx="21" transform="rotate(90 200 0)" fill="white"/>
</mask>
<g mask="url(#mask0)">
<path opacity="0.600212" fill-rule="evenodd" clip-rule="evenodd" d="M210.203 -20.7714L52.6175 35.9976L-28.3976 203.997L210.203 224.314L210.203 -20.7714Z" fill="url(#paint1_linear)"/>
<path opacity="0.5" fill-rule="evenodd" clip-rule="evenodd" d="M206.809 15.0778L104.871 68.5523L-15.7855 247.286L242.736 230.456L206.809 15.0778Z" fill="url(#paint2_linear)"/>
<path opacity="0.5" fill-rule="evenodd" clip-rule="evenodd" d="M103.582 -27.7415L67.9308 36.6347L-43.4945 217.911L219.798 248.152L103.582 -27.7415Z" fill="url(#paint3_linear)"/>
</g>
<defs>
<linearGradient id="paint0_linear" x1="2.48713" y1="58.6214" x2="151.597" y2="385.005" gradientUnits="userSpaceOnUse">
<stop stop-color="#EEBC1D"/>
<stop offset="1" stop-color="#FFD700"/>
</linearGradient>
<linearGradient id="paint1_linear" x1="136.505" y1="310.988" x2="297.459" y2="121.002" gradientUnits="userSpaceOnUse">
<stop/>
<stop offset="1" stop-opacity="0.01"/>
</linearGradient>
<linearGradient id="paint2_linear" x1="162.886" y1="329.406" x2="310.779" y2="129.771" gradientUnits="userSpaceOnUse">
<stop/>
<stop offset="1" stop-opacity="0.01"/>
</linearGradient>
<linearGradient id="paint3_linear" x1="138.474" y1="345.722" x2="320.22" y2="135.427" gradientUnits="userSpaceOnUse">
<stop/>
<stop offset="1" stop-opacity="0.01"/>
</linearGradient>
</defs>
</svg>
