<?xml version="1.0" encoding="UTF-8" standalone="no"?>
<svg
   xmlns:dc="http://purl.org/dc/elements/1.1/"
   xmlns:cc="http://creativecommons.org/ns#"
   xmlns:rdf="http://www.w3.org/1999/02/22-rdf-syntax-ns#"
   xmlns:svg="http://www.w3.org/2000/svg"
   xmlns="http://www.w3.org/2000/svg"
   xmlns:sodipodi="http://sodipodi.sourceforge.net/DTD/sodipodi-0.dtd"
   xmlns:inkscape="http://www.inkscape.org/namespaces/inkscape"
   width="127"
   height="27"
   version="1.1"
   id="svg10"
   sodipodi:docname="vanguard.svg"
   inkscape:version="0.92.5 (2060ec1f9f, 2020-04-08)">
  <metadata
     id="metadata16">
    <rdf:RDF>
      <cc:Work
         rdf:about="">
        <dc:format>image/svg+xml</dc:format>
        <dc:type
           rdf:resource="http://purl.org/dc/dcmitype/StillImage" />
        <dc:title></dc:title>
      </cc:Work>
    </rdf:RDF>
  </metadata>
  <defs
     id="defs14" />
  <sodipodi:namedview
     pagecolor="#ffffff"
     bordercolor="#666666"
     borderopacity="1"
     objecttolerance="10"
     gridtolerance="10"
     guidetolerance="10"
     inkscape:pageopacity="0"
     inkscape:pageshadow="2"
     inkscape:window-width="640"
     inkscape:window-height="480"
     id="namedview12"
     showgrid="false"
     inkscape:zoom="4.0314961"
     inkscape:cx="70.870356"
     inkscape:cy="-5.4664679"
     inkscape:current-layer="g8" />
  <g
     fill="#96151D"
     fill-rule="evenodd"
     id="g8">
    <g
       aria-label="Investment"
       style="font-style:normal;font-variant:normal;font-weight:normal;font-stretch:normal;font-size:26.66666603px;line-height:0;font-family:'Liberation Serif';-inkscape-font-specification:'Liberation Serif';letter-spacing:1.04000008px;word-spacing:0px;fill:#5b9571;fill-opacity:1;stroke:none"
       id="text829">
      <path
         d="m 4.8746884,20.231771 2.2395833,0.351562 v 0.690104 H 0.13510521 V 20.583333 L 2.3746885,20.231771 V 4.8411462 L 0.13510521,4.5026046 V 3.8125004 H 7.1142717 V 4.5026046 L 4.8746884,4.8411462 Z"
         style=""
         id="path831" />
      <path
         d="m 13.310521,10.023438 q 1.002605,-0.5729169 2.135417,-0.9375002 1.132813,-0.3776042 1.888021,-0.3776042 1.588541,0 2.395833,0.9244792 0.807292,0.9244792 0.807292,2.6822912 v 8.046875 l 1.484375,0.325521 v 0.585937 H 16.748021 V 20.6875 l 1.627604,-0.325521 v -7.8125 q 0,-1.080729 -0.533854,-1.692708 -0.520833,-0.625 -1.627604,-0.625 -1.171875,0 -2.877604,0.377604 v 9.752604 l 1.653646,0.325521 v 0.585937 H 9.7037507 V 20.6875 L 11.175105,20.361979 V 9.9453128 L 9.7037507,9.6197919 V 9.0338545 h 3.4895833 z"
         style=""
         id="path833" />
      <path
         d="M 30.717709,21.533854 H 29.754167 L 24.715104,9.9453128 23.465105,9.6197919 V 9.0338545 h 5.703124 V 9.6197919 L 27.228125,9.9713544 30.795834,18.421875 34.207292,9.9453128 32.267188,9.6197919 V 9.0338545 h 4.53125 v 0.5859374 l -1.171875,0.2734375 z"
         style=""
         id="path835" />
      <path
         d="m 41.223854,15.114583 v 0.234375 q 0,1.796875 0.390625,2.79948 0.403646,0.989583 1.223958,1.510416 0.833334,0.520834 2.174479,0.520834 0.703125,0 1.666667,-0.117188 0.963542,-0.117187 1.588542,-0.260417 v 0.729167 q -0.625,0.403646 -1.705729,0.703125 -1.067709,0.299479 -2.1875,0.299479 -2.851563,0 -4.179688,-1.536458 -1.315104,-1.536458 -1.315104,-4.934896 0,-3.203125 1.341146,-4.778646 1.341146,-1.5755204 3.828125,-1.5755204 4.700521,0 4.700521,5.3385414 v 1.067708 z m 2.825521,-5.3645827 q -1.354167,0 -2.083333,1.0937497 -0.716146,1.09375 -0.716146,3.229167 h 5.234375 q 0,-2.330729 -0.598959,-3.320313 -0.598958,-1.0026037 -1.835937,-1.0026037 z"
         style=""
         id="path837" />
      <path
         d="m 60.128438,17.835938 q 0,1.822916 -1.158854,2.760416 -1.145833,0.9375 -3.398437,0.9375 -0.911459,0 -2.018229,-0.195312 -1.09375,-0.182292 -1.71875,-0.416667 v -3.007812 h 0.585937 l 0.638021,1.705729 q 0.976562,0.885416 2.539062,0.885416 2.526042,0 2.526042,-2.161458 0,-1.588542 -1.992188,-2.265625 l -1.158854,-0.377604 q -1.315104,-0.429688 -1.914062,-0.872396 -0.598958,-0.442708 -0.924479,-1.080729 -0.325521,-0.651042 -0.325521,-1.5625 0,-1.614583 1.09375,-2.5390624 1.106771,-0.9375 2.981771,-0.9375 1.341145,0 3.359375,0.4036459 V 11.78125 h -0.61198 l -0.546875,-1.419271 q -0.690104,-0.6119787 -2.174479,-0.6119787 -1.054687,0 -1.614583,0.5208337 -0.546875,0.520833 -0.546875,1.40625 0,0.742187 0.494792,1.25 0.507812,0.507812 1.523437,0.846354 1.914063,0.651041 2.5,0.95052 0.585938,0.29948 0.989583,0.742188 0.416667,0.429687 0.638021,0.989583 0.234375,0.559896 0.234375,1.380209 z"
         style=""
         id="path839" />
      <path
         d="m 66.480937,21.533854 q -1.25,0 -1.875,-0.742187 -0.611979,-0.742188 -0.611979,-2.083334 V 10.127604 H 62.392395 V 9.5416669 L 64.019999,9.0338545 65.335103,6.260417 h 0.820313 v 2.7734375 h 2.799479 v 1.0937495 h -2.799479 v 8.346354 q 0,0.846355 0.377604,1.276042 0.390625,0.429688 1.015625,0.429688 0.755208,0 1.835937,-0.208334 v 0.846354 q -0.455729,0.3125 -1.315104,0.507813 -0.859375,0.208333 -1.588541,0.208333 z"
         style=""
         id="path841" />
      <path
         d="m 74.825626,10.023438 q 0.976563,-0.5598961 2.070313,-0.9375002 1.09375,-0.3776042 1.927083,-0.3776042 0.898438,0 1.653646,0.3385417 0.768229,0.3385417 1.145833,1.0807287 1.002604,-0.5598954 2.34375,-0.9895829 1.354167,-0.4296875 2.239583,-0.4296875 3.125,0 3.125,3.6067704 v 8.046875 l 1.575521,0.325521 v 0.585937 H 85.346459 V 20.6875 l 1.822917,-0.325521 v -7.8125 q 0,-2.239583 -2.083333,-2.239583 -0.338542,0 -0.794271,0.05208 -0.442708,0.05208 -0.898437,0.117188 -0.442709,0.0651 -0.859375,0.15625 -0.403646,0.07813 -0.677084,0.130208 0.221354,0.703125 0.221354,1.549479 v 8.046875 l 1.835938,0.325521 v 0.585937 H 78.106876 V 20.6875 l 1.809896,-0.325521 v -7.8125 q 0,-1.080729 -0.559896,-1.653645 -0.546875,-0.585938 -1.653646,-0.585938 -1.145833,0 -2.851562,0.377604 v 9.674479 l 1.835937,0.325521 v 0.585937 H 71.140731 V 20.6875 L 72.69021,20.361979 V 9.9453128 L 71.140731,9.6197919 V 9.0338545 h 3.580729 z"
         style=""
         id="path843" />
      <path
         d="m 95.74844,15.114583 v 0.234375 q 0,1.796875 0.390625,2.79948 0.403646,0.989583 1.223958,1.510416 0.833333,0.520834 2.174479,0.520834 0.703128,0 1.666668,-0.117188 0.96354,-0.117187 1.58854,-0.260417 v 0.729167 q -0.625,0.403646 -1.70573,0.703125 -1.06771,0.299479 -2.187499,0.299479 -2.851562,0 -4.179687,-1.536458 -1.315104,-1.536458 -1.315104,-4.934896 0,-3.203125 1.341146,-4.778646 1.341145,-1.5755204 3.828125,-1.5755204 4.700519,0 4.700519,5.3385414 v 1.067708 z m 2.825521,-5.3645827 q -1.354167,0 -2.083334,1.0937497 -0.716146,1.09375 -0.716146,3.229167 h 5.234379 q 0,-2.330729 -0.59896,-3.320313 -0.59896,-1.0026037 -1.835939,-1.0026037 z"
         style=""
         id="path845" />
      <path
         d="m 109.45771,10.023438 q 1.00261,-0.5729169 2.13542,-0.9375002 1.13281,-0.3776042 1.88802,-0.3776042 1.58854,0 2.39583,0.9244792 0.80729,0.9244792 0.80729,2.6822912 v 8.046875 l 1.48438,0.325521 v 0.585937 h -5.27344 V 20.6875 l 1.62761,-0.325521 v -7.8125 q 0,-1.080729 -0.53386,-1.692708 -0.52083,-0.625 -1.6276,-0.625 -1.17188,0 -2.87761,0.377604 v 9.752604 l 1.65365,0.325521 v 0.585937 h -5.28646 V 20.6875 l 1.47135,-0.325521 V 9.9453128 L 105.85094,9.6197919 V 9.0338545 h 3.48958 z"
         style=""
         id="path847" />
      <path
         d="m 123.96125,21.533854 q -1.25,0 -1.875,-0.742187 -0.61198,-0.742188 -0.61198,-2.083334 v -8.580729 h -1.60156 V 9.5416669 l 1.6276,-0.5078124 1.31511,-2.7734375 h 0.82031 v 2.7734375 h 2.79948 v 1.0937495 h -2.79948 v 8.346354 q 0,0.846355 0.3776,1.276042 0.39063,0.429688 1.01563,0.429688 0.75521,0 1.83593,-0.208334 v 0.846354 q -0.45572,0.3125 -1.3151,0.507813 -0.85937,0.208333 -1.58854,0.208333 z"
         style=""
         id="path849" />
    </g>
  </g>
</svg>
